# xmcd
#
# Track frame offsets:
#	150
#	17263
#	36040
#	59585
#	78104
#
# Disc length: 1350 seconds
#
# Revision: 2
# Processed by: cddbd v1.5.2PL0 Copyright (c) Steve Scherf et al.
# Submitted via: audiograbber 1.83.01
#
DISCID=2d054405
DTITLE=Golden Earring - Complete Studio Recordings [CD 26) - The Hague [remaste
DTITLE=red 2017]
DYEAR=2015
DGENRE=Rock
TTITLE0=Je Regrette
TTITLE1=That's Why I Believe In Her
TTITLE2=My Lips Are Sealed
TTITLE3=Did I Make You Up
TTITLE4=Come On Home
EXTD=
EXTT0=
EXTT1=
EXTT2=
EXTT3=
EXTT4=
PLAYORDER=
